<?xml version="1.0"?>
<svg version="1.1" xmlns="http://www.w3.org/2000/svg" width="460px" height="170px" style=""><path fill="#f7f7f7" d="M7.05,151.825l47.925-64.8l-28.35,0l-3.375,12.15l-12.825,0l0-28.35l71.55,0l0,15.255l-46.98,63.72l30.78,0l2.97-13.5l12.825,0l0,29.7l-74.52,0l0-14.175z M166.01385,134.005l-44.82,0c0.81,10.8,7.02,17.145,16.335,17.145c11.205,0,22.68-6.345,22.68-6.345l5.805,11.205s-13.5,11.34-30.78,11.34c-23.22,0-35.1-13.5-35.1-36.45c0-23.625,13.365-39.15,36.045-39.15c20.115,0,30.645,12.42,30.645,31.725c0,5.13-0.81,10.125-0.81,10.53z M121.46385,121.45l24.435,0c0-7.695-3.24-13.5-11.07-13.5c-7.56,0-12.285,5.535-13.365,13.5z"/><path fill="#0fc0d4" d="M202.5,74.5l10.5,0c13,0,22,5.5,22,17.3c0,8.7-4.1,14-12,16.5c9.4,2.7,14.3,8.3,14.3,16c0,14.7-9.8,20.7-26,20.7l-31.8,0l0-8.5l7.5-3l0-47l-7.5-3l0-8.5z M202.5,103.3l5.8,0c7.3,0,11.2-3.1,11.2-9.3c0-5.2-3.7-7.5-8.5-7.5l-8.5,0l0,16.8z M202.5,133l8.3,0c7,0,10.7-3.2,10.7-8.7c0-7.3-4.2-10.5-13.2-10.5l-5.8,0l0,19.2z M286.351,145l-1.8-6.5s-7.7,7.5-16.2,7.5c-9.7,0-15.6-5.7-15.6-15.7c0-11.8,8.9-16.5,24.1-16.5l7,0l0-5.5c0-5.1-2.7-7.3-7.7-7.3c-5.1,0-8.8,1.5-8.8,1.5l-1.5,6.3l-9,0l-0.7-14.8s12.1-4,21.7-4c15.2,0,21,5.3,21,19.8l0,24.7l7.5,1.8l0,8z M283.851,122.3l-5.7,0c-7.8,0-10.9,2-10.9,6.5c0,3.8,2.1,6,5.9,6c5.3,0,10.7-5.8,10.7-5.8l0-6.7z M340.502,91l0.7,6.9s9.5-7.7,18.4-7.7c9.7,0,15.2,6.9,15.2,17.8l0,26.5l7,2.5l0,8l-27.5,0l0-8l5.5-2.5l0-23.8c0-4.6-2.6-8-6.8-8c-6.2,0-10.7,5.7-10.7,5.7l0,26.1l5.5,2.5l0,8l-28.5,0l0-8l8-2.5l0-32.5l-8-2.5l0-8z M416.253,111.1l6.6,0l6.8-10.2l-4.4-1.4l0-8l25.8-0.5l0,8.5l-7,1.3l-9.3,13.1l11.2,20.7l7.6,2.4l0,8l-18.5,0l-12.4-24.4l-6.4,0l0,13.9l5.5,2.5l0,8l-28.5,0l0-8l8-2.5l0-56.2l-8-2l0-8l23-0.8l0,43.6z"/></svg>
